# xmcd
#
# Track frame offsets: 
#        150
#        22787
#        38342
#        58255
#        87482
#        101177
#        119852
#        143125
#        166832
#        187360
#        202072
#        221822
#        242207
#        255967
#        270040
#
# Disc length: 3964 seconds
#
# Revision: 1
# Processed by: cddbd v1.5.1PL0 Copyright (c) Steve Scherf et al.
# Submitted via: ExactAudioCopy v0.95a3
#
DISCID=db0f7a0f
DTITLE=Katy Moffatt - Cowboy Girl
DYEAR=2001
DGENRE=Country
TTITLE0=Black Diamond
TTITLE1=John Hardy
TTITLE2=Midnight the Uncoquered Outlaw
TTITLE3=O'l Bill Miner (The Gentleman Bandit)
TTITLE4=Indian Cowboy
TTITLE5=Further
TTITLE6=Texas Rangers
TTITLE7=Me and My Uncle
TTITLE8=Magdalena and the Jack of Spades
TTITLE9=Black-Eyed Caballero
TTITLE10=The Brazos
TTITLE11=Hallie Lonigan
TTITLE12=The Ghost Light of Marfa
TTITLE13=The Wayward Wind
TTITLE14=When I Was a Cowboy
EXTD=
EXTT0=
EXTT1=
EXTT2=
EXTT3=
EXTT4=
EXTT5=
EXTT6=
EXTT7=
EXTT8=
EXTT9=
EXTT10=
EXTT11=
EXTT12=
EXTT13=
EXTT14=
PLAYORDER=
